<svg xmlns="http://www.w3.org/2000/svg" viewBox="0 0 237.35 239.05"><defs><style>.cls-1{fill:#545454;}</style></defs><g id="Layer_2" data-name="Layer 2"><g id="Layer_1-2" data-name="Layer 1"><path class="cls-1" d="M41.22,131.51c12.55,0,25.11.05,37.66,0,2.51,0,3.77.83,4.84,3.13,6.89,14.76,18.5,23.08,34.86,23.14s27.79-8.28,34.77-22.81c1.18-2.46,2.39-3.49,5.21-3.48,24.9.11,49.81.07,74.72.08,4.3,0,4.4,0,3.81,4.18-3.17,22.59-11.84,42.77-26.57,60.25-19.41,23-44.09,37.12-73.8,41.61-33.76,5.1-64.52-2.93-91.51-23.9C20.36,194.33,5.56,168.83.51,137.71c-1-6.22-1.07-6.21,5.18-6.21Z"/><path class="cls-1" d="M194.61,102.87c-12.46,0-24.92-.05-37.38,0-2.82,0-4.6-.75-6.15-3.38-14.42-24.47-49.88-24.63-64.7-.29A6.76,6.76,0,0,1,79.77,103c-24.72-.1-49.43-.07-74.15-.08h-.3c-4.93,0-5.17-.3-4.28-5A117.78,117.78,0,0,1,26.55,43.24C47.1,18.72,73.29,3.85,105.06.72c46.38-4.57,83.64,12.65,111.37,50.15,10.51,14.21,16.67,30.34,19.89,47.64.75,4,.48,4.36-3.72,4.37q-19,0-38,0Z"/><path class="cls-1" d="M95.27,119.38A23.71,23.71,0,0,1,118.5,96.07C131.14,96,142,106.78,142,119.46c0,12.38-10.89,23.3-23.31,23.35A23.72,23.72,0,0,1,95.27,119.38Zm23.27,13.56c8.13,0,13.67-5.55,13.64-13.68a13.25,13.25,0,0,0-13.51-13.64c-8,0-13.53,5.63-13.52,13.82S110.55,132.94,118.54,132.94Z"/></g></g></svg>