<svg style="fill: rgba(0,0,0,0.2)" xmlns="http://www.w3.org/2000/svg" viewBox="0 0 199.69 199.58"><g id="Layer_2" data-name="Layer 2"><g id="Layer_1-2" data-name="Layer 1"><path d="M94.49,0h11.2a8.1,8.1,0,0,0,1.17.24,89.85,89.85,0,0,1,32.82,8c29.17,13.17,48.08,35.26,56.78,66.06a106.68,106.68,0,0,1,3.23,18.87v13.2c-.49,3.69-.84,7.41-1.52,11.07-4.2,22.91-14.95,42.25-32.57,57.47-20.58,17.78-44.55,26-71.86,24.45a96.58,96.58,0,0,1-21.8-3.72A99.87,99.87,0,0,1,0,100.21a91.19,91.19,0,0,1,5.21-32c13-35.83,38.13-57.89,75.25-66.38A116.31,116.31,0,0,1,94.49,0Zm94.27,99.71a51.14,51.14,0,0,0-.34-5.68,86.66,86.66,0,0,0-7.81-31.22c-.65-1.45-1.25-1.69-2.67-.87q-18.49,10.75-37.06,21.37c-1.49.85-1.85,1.67-1.3,3.35a40.7,40.7,0,0,1,1.92,17.13,41.77,41.77,0,0,1-42.07,37.84c-12.28-.2-22.61-5.06-30.89-14.15-.93-1-1.64-1.46-3-.65Q47,137.63,28.29,148.3c-1.55.89-1.74,1.65-.66,3.09A88.44,88.44,0,0,0,39.69,165c24.93,22,53.57,28.84,85.53,19.81C160.54,174.81,188.26,141.74,188.76,99.71ZM58,99.28c.1-1.08.23-2.47.37-3.87A41.71,41.71,0,0,1,99.3,58c12.74-.09,23.46,4.8,32,14.26.9,1,1.59,1.32,2.86.58Q152.77,62,171.42,51.3c1.69-1,1.69-1.74.6-3.22a89.08,89.08,0,0,0-22.4-21.76c-19-12.69-39.92-17.5-62.6-14.27A85.4,85.4,0,0,0,36.48,37.76c-18,18.62-26.4,41.07-25.13,67a86,86,0,0,0,7.79,31.82c.72,1.56,1.43,1.77,2.88.93q18.57-10.8,37.21-21.49a2,2,0,0,0,1.05-2.92A46.05,46.05,0,0,1,58,99.28Zm42.1,30.36a29.84,29.84,0,1,0-30-29.64A29.56,29.56,0,0,0,100.05,129.64Z"/></g></g></svg>